<?xml version="1.0" encoding="UTF-8"?>
<svg id="Layer_1" data-name="Layer 1" xmlns="http://www.w3.org/2000/svg" xmlns:xlink="http://www.w3.org/1999/xlink" viewBox="0 0 1000 1000">
  <defs>
    <style>
      .cls-1 {
        fill: url(#New_Gradient_Swatch_copy);
      }

      .cls-1, .cls-2 {
        stroke-width: 0px;
      }

      .cls-2 {
        fill: #2f3649;
      }
    </style>
    <linearGradient id="New_Gradient_Swatch_copy" data-name="New Gradient Swatch copy" x1="164.2" y1="139.48" x2="781.12" y2="847.68" gradientUnits="userSpaceOnUse">
      <stop offset="0" stop-color="#00b7e9"/>
      <stop offset="1" stop-color="#c608ff"/>
    </linearGradient>
  </defs>
  <path class="cls-2" d="M236.33,240.04c-15.72,40.13-18.73,88.67-8.25,142.13,2.17,10.98,4.83,21.99,8.04,33h175.82v254.87c65.29,53.46,138.49,89.35,208.59,102.46v-357.33h242.82l-39.33-175.13H236.33Z"/>
  <path class="cls-1" d="M844.97,844.97c-49.36,49.36-118.07,72.19-194.8,70.69-75.27-1.48-158.25-26.37-238.23-72.61-50-28.87-98.81-66.09-143.87-111.14C77.56,541.38,26.94,283.09,155.02,155.02c83.43-83.43,222.12-91.04,361.32-33.55-100.93-29.85-197.1-17.3-258.01,43.62-107.04,107.04-64.74,322.87,94.48,482.1,19.01,19.01,38.81,36.33,59.14,51.94,67.18,51.62,140.08,84.43,208.59,96.46,84.5,14.88,162.3-1.85,214.37-53.92,60.94-60.91,73.49-157.08,43.62-258.01,57.5,139.22,49.91,277.89-33.55,361.32Z"/>
</svg>