<?xml version="1.0" encoding="UTF-8"?>
<svg id="Layer_1" data-name="Layer 1" xmlns="http://www.w3.org/2000/svg" xmlns:xlink="http://www.w3.org/1999/xlink" viewBox="0 0 1000 327.64">
  <defs>
    <style>
      .cls-1 {
        fill: url(#New_Gradient_Swatch_copy-3);
      }

      .cls-1, .cls-2, .cls-3, .cls-4, .cls-5, .cls-6, .cls-7, .cls-8 {
        stroke-width: 0px;
      }

      .cls-2 {
        fill: url(#New_Gradient_Swatch_copy);
      }

      .cls-3 {
        fill: url(#New_Gradient_Swatch_copy-5);
      }

      .cls-9 {
        letter-spacing: .59em;
      }

      .cls-10 {
        letter-spacing: .6em;
      }

      .cls-4 {
        fill: url(#New_Gradient_Swatch_copy-2);
      }

      .cls-5 {
        fill: url(#New_Gradient_Swatch_copy-4);
      }

      .cls-6 {
        fill: url(#New_Gradient_Swatch_copy-6);
      }

      .cls-7 {
        fill: url(#New_Gradient_Swatch_copy-7);
      }

      .cls-11 {
        fill: #4d4d4d;
        font-family: Montserrat-SemiBold, Montserrat;
        font-size: 83.86px;
        font-weight: 600;
      }

      .cls-8, .cls-12 {
        fill: #2f3649;
      }

      .cls-12 {
        font-family: WhiskeyGirlsCondensed, 'Whiskey Girls Condensed';
        font-size: 248.14px;
      }
    </style>
    <linearGradient id="New_Gradient_Swatch_copy" data-name="New Gradient Swatch copy" x1="37.19" y1="29.85" x2="267.27" y2="293.98" gradientUnits="userSpaceOnUse">
      <stop offset="0" stop-color="#00b7e9"/>
      <stop offset="1" stop-color="#c608ff"/>
    </linearGradient>
    <linearGradient id="New_Gradient_Swatch_copy-2" data-name="New Gradient Swatch copy" x1="381.33" y1="264.59" x2="989.79" y2="264.59" xlink:href="#New_Gradient_Swatch_copy"/>
    <linearGradient id="New_Gradient_Swatch_copy-3" data-name="New Gradient Swatch copy" x1="381.33" y1="264.59" x2="989.79" y2="264.59" xlink:href="#New_Gradient_Swatch_copy"/>
    <linearGradient id="New_Gradient_Swatch_copy-4" data-name="New Gradient Swatch copy" x1="381.33" y1="264.59" x2="989.79" y2="264.59" xlink:href="#New_Gradient_Swatch_copy"/>
    <linearGradient id="New_Gradient_Swatch_copy-5" data-name="New Gradient Swatch copy" x1="381.33" y1="264.59" x2="989.79" y2="264.59" xlink:href="#New_Gradient_Swatch_copy"/>
    <linearGradient id="New_Gradient_Swatch_copy-6" data-name="New Gradient Swatch copy" x1="381.33" y1="264.59" x2="989.79" y2="264.59" xlink:href="#New_Gradient_Swatch_copy"/>
    <linearGradient id="New_Gradient_Swatch_copy-7" data-name="New Gradient Swatch copy" x1="381.33" y1="264.59" x2="989.79" y2="264.59" xlink:href="#New_Gradient_Swatch_copy"/>
  </defs>
  <text class="cls-12" transform="translate(371.68 212.93)"><tspan x="0" y="0">TOJO</tspan></text>
  <g>
    <path class="cls-8" d="M64.09,67.35c-5.86,14.97-6.99,33.07-3.08,53.01.81,4.1,1.8,8.2,3,12.31h65.57v95.06c24.35,19.94,51.65,33.33,77.79,38.21v-133.27h90.56l-14.67-65.32H64.09Z"/>
    <path class="cls-2" d="M291.09,292.96c-18.41,18.41-44.03,26.93-72.65,26.36-28.07-.55-59.02-9.83-88.85-27.08-18.65-10.77-36.85-24.65-53.66-41.45C4.87,179.74-14,83.41,33.76,35.64,64.88,4.53,116.61,1.69,168.52,23.13c-37.64-11.13-73.51-6.45-96.23,16.27-39.92,39.92-24.15,120.42,35.24,179.8,7.09,7.09,14.47,13.55,22.06,19.37,25.06,19.25,52.24,31.49,77.79,35.98,31.52,5.55,60.53-.69,79.95-20.11,22.73-22.72,27.41-58.59,16.27-96.23,21.44,51.92,18.61,103.64-12.51,134.76Z"/>
  </g>
  <g>
    <text class="cls-11" transform="translate(377.64 293.94)"><tspan class="cls-10" x="0" y="0">G</tspan><tspan class="cls-9" x="115.05" y="0">L</tspan><tspan class="cls-10" x="214.51" y="0">OBAL</tspan></text>
    <g>
      <path class="cls-4" d="M425.6,263.92h10.31v23.4c-3.02,2.4-6.54,4.25-10.57,5.54-4.03,1.29-8.16,1.93-12.41,1.93-5.98,0-11.38-1.3-16.18-3.9-4.81-2.6-8.58-6.19-11.32-10.78-2.74-4.58-4.11-9.75-4.11-15.51s1.37-10.93,4.11-15.51c2.74-4.58,6.53-8.18,11.36-10.78,4.83-2.6,10.27-3.9,16.31-3.9,4.92,0,9.39.81,13.42,2.43,4.03,1.62,7.41,4,10.15,7.13l-6.88,6.71c-4.47-4.47-9.87-6.71-16.18-6.71-4.14,0-7.81.87-11.03,2.6-3.22,1.73-5.73,4.17-7.55,7.29-1.82,3.13-2.73,6.71-2.73,10.73s.91,7.44,2.73,10.57c1.82,3.13,4.33,5.59,7.55,7.38,3.21,1.79,6.86,2.68,10.94,2.68,4.58,0,8.61-1.01,12.08-3.02v-18.28Z"/>
      <path class="cls-1" d="M500.57,235.24h10.9v49.48h30.69v9.22h-41.59v-58.7Z"/>
      <path class="cls-5" d="M611.26,290.88c-4.81-2.6-8.58-6.21-11.32-10.82-2.74-4.61-4.11-9.77-4.11-15.47s1.37-10.86,4.11-15.47c2.74-4.61,6.51-8.22,11.32-10.82,4.81-2.6,10.2-3.9,16.18-3.9s11.38,1.3,16.18,3.9c4.81,2.6,8.58,6.19,11.32,10.78,2.74,4.58,4.11,9.76,4.11,15.51s-1.37,10.93-4.11,15.51c-2.74,4.58-6.51,8.18-11.32,10.78-4.81,2.6-10.2,3.9-16.18,3.9s-11.38-1.3-16.18-3.9ZM638.01,282.58c3.13-1.76,5.59-4.22,7.38-7.38,1.79-3.16,2.68-6.69,2.68-10.61s-.89-7.45-2.68-10.61c-1.79-3.16-4.25-5.62-7.38-7.38-3.13-1.76-6.65-2.64-10.57-2.64s-7.44.88-10.57,2.64c-3.13,1.76-5.59,4.22-7.38,7.38-1.79,3.16-2.68,6.7-2.68,10.61s.89,7.45,2.68,10.61c1.79,3.16,4.25,5.62,7.38,7.38,3.13,1.76,6.65,2.64,10.57,2.64s7.43-.88,10.57-2.64Z"/>
      <path class="cls-3" d="M770.26,268.74c1.9,2.49,2.85,5.58,2.85,9.27,0,5.09-1.96,9.01-5.87,11.78-3.91,2.77-9.62,4.15-17.11,4.15h-29.18v-58.7h27.5c6.93,0,12.27,1.36,16.02,4.07,3.75,2.71,5.62,6.44,5.62,11.19,0,2.91-.67,5.48-2.01,7.71-1.34,2.24-3.19,3.97-5.53,5.2,3.24,1.06,5.81,2.84,7.71,5.33ZM731.85,243.79v16.18h15.43c3.8,0,6.72-.68,8.76-2.05,2.04-1.37,3.06-3.37,3.06-6s-1.02-4.71-3.06-6.08c-2.04-1.37-4.96-2.05-8.76-2.05h-15.43ZM762.12,276.92c0-5.65-4.22-8.47-12.66-8.47h-17.61v16.94h17.61c8.44,0,12.66-2.82,12.66-8.47Z"/>
      <path class="cls-6" d="M873.15,280.35h-29.35l-5.79,13.58h-11.24l26.42-58.7h10.73l26.5,58.7h-11.4l-5.87-13.58ZM869.54,271.8l-11.07-25.66-10.99,25.66h22.05Z"/>
      <path class="cls-7" d="M948.2,235.24h10.9v49.48h30.69v9.22h-41.59v-58.7Z"/>
    </g>
  </g>
</svg>